<svg width="32" height="32" viewBox="0 0 32 32" fill="none" xmlns="http://www.w3.org/2000/svg">
<rect width="32" height="32" rx="8" fill="black"/>
<path fill-rule="evenodd" clip-rule="evenodd" d="M5.12671 8.25772C4.9573 8.21079 4.72812 8.20014 3.79584 8.20014H3.14673C2.51341 8.20014 2 7.70766 2 7.10015C2 6.49264 2.51341 6.00016 3.14673 6.00016C3.41041 6.00016 3.67408 6.0003 3.93776 6.00008C4.6539 5.99947 5.23911 5.99898 5.76301 6.1441C6.8533 6.44612 7.75987 7.19007 8.20493 8.20014L24.5546 8.20014C24.8908 8.20013 25.192 8.20012 25.4411 8.21437C25.7011 8.22925 25.9949 8.26299 26.2896 8.372C27.2325 8.72073 27.8901 9.54922 27.9897 10.5138C28.0208 10.8154 27.9766 11.096 27.9223 11.3404C27.8704 11.5744 27.7903 11.8529 27.7008 12.1637C27.0988 14.256 26.4946 16.3478 25.8949 18.4407C25.7495 18.9482 25.6226 19.3908 25.3929 19.7673C24.9346 20.5182 24.1858 21.0651 23.3093 21.289C22.8699 21.4013 22.3913 21.4008 21.8426 21.4003C18.5125 21.3969 15.1824 21.3967 11.8523 21.4003C11.2485 21.4009 10.7235 21.4015 10.251 21.2706C9.30785 21.0094 8.52596 20.374 8.10223 19.5245C7.88999 19.099 7.80427 18.6022 7.70568 18.0308C7.26006 15.4479 6.80841 12.866 6.35973 10.2836C6.20647 9.40144 6.15784 9.18634 6.08173 9.03377C5.89341 8.65622 5.5459 8.37384 5.12671 8.25772ZM8.70508 10.4001L9.94661 17.5457C10.0797 18.312 10.1183 18.4692 10.1711 18.575C10.3123 18.8581 10.5729 19.0699 10.8873 19.157C11.0048 19.1895 11.1728 19.2002 11.9826 19.2002H21.7254C22.4588 19.2002 22.6094 19.1912 22.7191 19.1631C23.0112 19.0885 23.2608 18.9062 23.4136 18.6559C23.4709 18.5619 23.5201 18.4251 23.7152 17.747L25.4818 11.6071C25.582 11.2588 25.6432 11.0444 25.6791 10.8824C25.7018 10.78 25.7057 10.7342 25.7065 10.7225C25.6898 10.5909 25.6003 10.4781 25.4725 10.4277C25.4605 10.4253 25.4134 10.4167 25.3045 10.4105C25.1322 10.4006 24.9004 10.4001 24.5238 10.4001H8.70508Z" fill="white"/>
<path d="M9.64488 26.1667C9.64488 25.1542 10.5006 24.3334 11.5561 24.3334C12.6116 24.3334 13.4673 25.1542 13.4673 26.1667C13.4673 27.1792 12.6116 28 11.5561 28C10.5006 28 9.64488 27.1792 9.64488 26.1667Z" fill="white"/>
<path d="M19.5832 26.1667C19.5832 25.1542 20.4389 24.3334 21.4945 24.3334C22.55 24.3334 23.4057 25.1542 23.4057 26.1667C23.4057 27.1792 22.55 28 21.4945 28C20.4389 28 19.5832 27.1792 19.5832 26.1667Z" fill="white"/>
</svg>
