<?xml version="1.0" encoding="utf-8"?>
<!-- Generator: Adobe Illustrator 24.3.0, SVG Export Plug-In . SVG Version: 6.00 Build 0)  -->
<svg version="1.1" id="Слой_1" xmlns="http://www.w3.org/2000/svg" xmlns:xlink="http://www.w3.org/1999/xlink" x="0px" y="0px"
	 viewBox="0 0 512 512" style="enable-background:new 0 0 512 512;" xml:space="preserve">
<style type="text/css">
	.st0{fill:#FFFFFF;}
</style>
<rect width="512" height="512"/>
<path class="st0" d="M169.6,193.1h173c-1.2-1.5-2.1-2.6-3-3.7c-23.2-27.3-46.4-54.6-69.6-82c-4-4.7-4.6-9.2-2-13.5
	c3.7-6.1,12-6.8,17-1c11,12.7,21.8,25.5,32.7,38.3c16.8,19.8,33.6,39.6,50.6,59.3c1.3,1.5,3.7,2.6,5.7,2.7
	c6.9,0.3,13.9,0.1,20.8,0.1c16.4,0.1,28.1,12,28.2,28.4c0,3.9,0,7.7,0,11.6c-0.1,12.3-7,22.1-18.6,26.3c-2.3,0.8-3.3,2-3.7,4.4
	c-7.3,43.6-14.7,87.3-22.1,130.9c-2.9,16.9-16.7,28.1-33.9,28.1c-57.6,0-115.2,0-172.8,0c-17.5,0-31.3-11.2-34.7-28.4
	c-8.6-43-17-86-25.3-129.1c-0.7-3.4-1.9-5.1-5.3-6.4c-10.5-3.7-17.3-13.7-17.6-24.9c-0.1-4.5-0.1-9.1,0-13.6
	c0.2-15,11.9-26.8,26.9-27.3c7.2-0.2,14.4-0.1,21.6,0c2.8,0.1,4.7-0.8,6.5-2.9c26.7-31.5,53.4-63,80.2-94.5c0.9-1.1,1.9-2.2,2.9-3.3
	c4.2-4.4,10.3-5,14.7-1.3c4.5,3.8,5,10.1,1,15c-3.8,4.7-7.7,9.2-11.6,13.7c-19.9,23.3-39.7,46.7-59.6,70
	C171,191,170.5,191.8,169.6,193.1z M132.7,261.5c0.2,1.4,0.2,2.6,0.5,3.8c8.1,41.4,16.3,82.9,24.5,124.3c1.6,8.3,6.6,12.6,15,12.6
	c57.2,0,114.4,0,171.5,0c8,0,12.9-4.4,14.2-12.3c5.7-33.9,11.4-67.8,17.1-101.7c1.5-8.8,2.9-17.5,4.4-26.6L132.7,261.5z
	 M255.8,240.3L255.8,240.3c45.9,0,91.7,0,137.6,0c6.4,0,8.6-2.3,8.8-8.7c0-2.5,0-5.1,0-7.6c0-7.7-2-9.7-9.8-9.7H122.8
	c-1.9,0-3.7,0-5.6,0c-4.4,0.1-7,2.5-7.3,6.9c-0.2,3.2-0.1,6.4-0.1,9.6c0,7.4,2.1,9.5,9.6,9.5C164.8,240.3,210.3,240.3,255.8,240.3
	L255.8,240.3z"/>
<path class="st0" d="M303,364.3c1.3-8.3,2.7-17.5,4.1-26.8c2.1-13.6,4.1-27.1,6.3-40.7c1-6.5,6.2-10.5,12-9.5
	c5.9,1,9.6,6.3,8.6,12.7c-3.4,22-6.8,44-10.2,65.9c-1,6.6-5.5,10.4-11.3,9.9C307,375.5,302.9,370.9,303,364.3z"/>
<path class="st0" d="M209,365.2c0,5.7-3.8,10.1-9.1,10.8c-5.6,0.7-10.6-2.7-11.6-8.6c-1.9-10.9-3.5-21.8-5.2-32.8
	c-1.8-11.3-3.5-22.6-5.2-34c-1-6.8,2.4-12.1,8.4-13.2c6-1.1,11.1,2.9,12.2,9.8c3.4,21.8,6.8,43.7,10.1,65.5
	C208.9,363.6,208.9,364.6,209,365.2z"/>
<path class="st0" d="M266.5,331.6c0,10.9,0,21.8,0,32.8c0,7-4.2,11.7-10.3,11.7s-10.5-4.6-10.5-11.5c-0.1-21.8-0.1-43.7,0-65.5
	c0-7,4.2-11.7,10.3-11.7c6.2-0.1,10.5,4.7,10.5,11.9C266.5,310,266.5,320.8,266.5,331.6z"/>
</svg>
