<svg width="32" height="32" viewBox="0 0 32 32" fill="none" xmlns="http://www.w3.org/2000/svg">
<rect width="32" height="32" fill="black"/>
<path fill-rule="evenodd" clip-rule="evenodd" d="M8.54497 10.0395C8.43417 10.0075 8.28428 10.0002 7.67454 10.0002H7.25C6.83579 10.0002 6.5 9.66443 6.5 9.25021C6.5 8.836 6.83579 8.50021 7.25 8.50021C7.42245 8.50021 7.5949 8.50031 7.76736 8.50016C8.23574 8.49975 8.61848 8.49941 8.96113 8.59836C9.67421 8.80428 10.2671 9.31152 10.5582 10.0002L21.2514 10.0002C21.4713 10.0002 21.6683 10.0002 21.8312 10.0099C22.0013 10.0201 22.1934 10.0431 22.3862 10.1174C23.0029 10.3552 23.433 10.92 23.4981 11.5777C23.5185 11.7833 23.4895 11.9747 23.454 12.1413C23.4201 12.3009 23.3677 12.4908 23.3092 12.7027C22.9154 14.1292 22.5203 15.5554 22.128 16.9824C22.0329 17.3285 21.95 17.6303 21.7997 17.887C21.5 18.3989 21.0102 18.7718 20.437 18.9245C20.1496 19.0011 19.8366 19.0007 19.4777 19.0004C17.2997 18.9981 15.1217 18.9979 12.9437 19.0004C12.5488 19.0008 12.2054 19.0012 11.8964 18.912C11.2796 18.7338 10.7682 18.3006 10.4911 17.7214C10.3522 17.4313 10.2962 17.0925 10.2317 16.703C9.94025 14.9419 9.64486 13.1815 9.35141 11.4207C9.25116 10.8193 9.21936 10.6726 9.16959 10.5686C9.04642 10.3112 8.81913 10.1186 8.54497 10.0395ZM10.8853 11.5002L11.6973 16.3722C11.7844 16.8947 11.8096 17.0019 11.8441 17.074C11.9365 17.2671 12.107 17.4115 12.3126 17.4709C12.3894 17.493 12.4993 17.5003 13.029 17.5003H19.4011C19.8807 17.5003 19.9792 17.4942 20.0509 17.475C20.242 17.4241 20.4053 17.2998 20.5052 17.1292C20.5427 17.0651 20.5748 16.9719 20.7024 16.5095L21.8578 12.3231C21.9234 12.0857 21.9634 11.9395 21.9869 11.829C22.0018 11.7593 22.0043 11.728 22.0048 11.72C21.9939 11.6303 21.9353 11.5534 21.8518 11.519C21.8439 11.5174 21.8131 11.5115 21.7419 11.5073C21.6292 11.5005 21.4776 11.5002 21.2313 11.5002H10.8853Z" fill="white"/>
<path d="M11.5 22.2502C11.5 21.5599 12.0596 21.0002 12.75 21.0002C13.4404 21.0002 14 21.5599 14 22.2502C14 22.9406 13.4404 23.5002 12.75 23.5002C12.0596 23.5002 11.5 22.9406 11.5 22.2502Z" fill="white"/>
<path d="M18 22.2502C18 21.5599 18.5596 21.0002 19.25 21.0002C19.9404 21.0002 20.5 21.5599 20.5 22.2502C20.5 22.9406 19.9404 23.5002 19.25 23.5002C18.5596 23.5002 18 22.9406 18 22.2502Z" fill="white"/>
</svg>